<?xml version="1.0" standalone="no"?>
<svg viewBox="0 0 200 200" xmlns="http://www.w3.org/2000/svg">
  <path fill="#FF0066" d="M42.2,-69.9C56.2,-65,70.1,-56.8,74.6,-44.6C79.2,-32.4,74.3,-16.2,70.8,-2C67.3,12.1,65.2,24.3,61.4,37.8C57.7,51.4,52.3,66.3,41.8,76C31.3,85.7,15.6,90,0.4,89.2C-14.8,88.5,-29.6,82.6,-42.6,74.4C-55.6,66.2,-66.8,55.6,-74.9,42.8C-83.1,30,-88.1,15,-87.7,0.2C-87.3,-14.5,-81.4,-29,-71.1,-38.1C-60.8,-47.2,-46.2,-50.9,-33.6,-56.6C-21,-62.4,-10.5,-70.1,1.8,-73.2C14.1,-76.3,28.2,-74.8,42.2,-69.9Z" transform="translate(100 100)" />
</svg>
